<svg width="48" height="48" viewBox="0 0 48 48" fill="none" xmlns="http://www.w3.org/2000/svg">
<path d="M4.6853 16.3391H6.12564C6.91121 16.3391 7.17319 16.601 7.17319 17.3866V36.3751H12.8044V26.6845H20.9236V22.1011H12.8044V16.3391H22.6241V11.6249H4.6853V16.3391Z" fill="#7AC143"/>
<path d="M28.3863 23.9341C28.3863 19.22 31.5293 16.6009 35.5898 16.6009C38.3397 16.6009 40.5659 17.3865 42.923 18.958V13.9815C40.5026 12.4239 37.681 11.6049 34.8028 11.6245C27.4696 11.6245 22.6243 16.7318 22.6243 24.065C22.6243 31.3982 27.7316 36.3746 35.1956 36.3746C38.0954 36.4134 40.9345 35.5433 43.3147 33.8864V28.7791C40.6957 30.4814 38.2074 31.2674 35.5884 31.2674C31.529 31.1365 28.3863 28.5175 28.3863 23.9341Z" fill="#7AC143"/>
</svg>
