<svg width="62" height="62" viewBox="0 0 62 62" fill="none" xmlns="http://www.w3.org/2000/svg">
<path d="M12.9017 17.2575H14.3421C15.1276 17.2575 15.3896 17.5195 15.3896 18.3051V37.2936H21.0209V27.6029H29.14V23.0196H21.0209V17.2575H30.8405V12.5434H12.9017V17.2575Z" fill="#E71C35"/>
<path d="M34.0215 37.1083C34.0215 32.3941 37.1645 29.7751 41.225 29.7751C43.9748 29.7751 46.2011 30.5606 48.5582 32.1322V27.1557C46.1378 25.5981 43.3162 24.779 40.438 24.7986C33.1048 24.7986 28.2595 29.9059 28.2595 37.2391C28.2595 44.5723 33.3668 49.5488 40.8308 49.5488C43.7306 49.5875 46.5697 48.7174 48.9499 47.0605V41.9532C46.3308 43.6556 43.8426 44.4415 41.2236 44.4415C37.1642 44.3107 34.0215 41.6916 34.0215 37.1083Z" fill="#E71C35"/>
</svg>
